<svg xmlns="http://www.w3.org/2000/svg" width="192" height="192" viewBox="0 0 192 192">
  <rect width="192" height="192" fill="#16a34a" rx="24"/>
  <g fill="white">
    <!-- Sun circle -->
    <circle cx="96" cy="76" r="28"/>
    <!-- Sun rays -->
    <rect x="92" y="28" width="8" height="16" rx="4"/>
    <rect x="92" y="108" width="8" height="16" rx="4"/>
    <rect x="44" y="72" width="16" height="8" rx="4"/>
    <rect x="132" y="72" width="16" height="8" rx="4"/>
    <rect x="53" y="43" width="8" height="16" rx="4" transform="rotate(-45 57 51)"/>
    <rect x="123" y="93" width="8" height="16" rx="4" transform="rotate(-45 127 101)"/>
    <rect x="123" y="43" width="8" height="16" rx="4" transform="rotate(45 127 51)"/>
    <rect x="53" y="93" width="8" height="16" rx="4" transform="rotate(45 57 101)"/>
    <!-- Solar panel base -->
    <rect x="48" y="130" width="96" height="6" rx="3"/>
    <polygon points="56,136 72,160 120,160 136,136"/>
  </g>
  <text x="96" y="176" text-anchor="middle" fill="white" font-family="Arial, sans-serif" font-size="16" font-weight="bold">JS</text>
</svg>
